<svg width="29" height="37" viewBox="0 0 29 37" fill="none" xmlns="http://www.w3.org/2000/svg">
<path d="M28 15.3182C28 26.4545 14.5 36 14.5 36C14.5 36 1 26.4545 1 15.3182C1 11.5208 2.42232 7.87888 4.95406 5.1937C7.4858 2.50852 10.9196 1 14.5 1C18.0804 1 21.5142 2.50852 24.0459 5.1937C26.5777 7.87888 28 11.5208 28 15.3182Z" stroke="white" stroke-width="2" stroke-linecap="round" stroke-linejoin="round"/>
<path d="M14.5 20.0909C16.9853 20.0909 19 17.9541 19 15.3182C19 12.6823 16.9853 10.5455 14.5 10.5455C12.0147 10.5455 10 12.6823 10 15.3182C10 17.9541 12.0147 20.0909 14.5 20.0909Z" stroke="white" stroke-width="2" stroke-linecap="round" stroke-linejoin="round"/>
</svg>
