<svg width="37" height="37" viewBox="0 0 37 37" fill="none" xmlns="http://www.w3.org/2000/svg">
<path d="M22.679 7.68956C24.3156 8.00826 25.8197 8.80715 26.9988 9.98398C28.1779 11.1608 28.9783 12.662 29.2976 14.2955L22.679 7.68956ZM22.679 1C26.0793 1.37702 29.25 2.89678 31.6707 5.30976C34.0913 7.72275 35.618 10.8855 36 14.2788L22.679 1ZM34.3244 27.6245V32.6416C34.3263 33.1074 34.2307 33.5684 34.0438 33.9952C33.8568 34.4219 33.5826 34.805 33.2388 35.1199C32.8949 35.4348 32.4889 35.6745 32.0469 35.8237C31.6048 35.9729 31.1364 36.0283 30.6716 35.9864C25.5155 35.4272 20.5628 33.6687 16.2112 30.8522C12.1627 28.2845 8.73027 24.8586 6.15767 20.8178C3.32588 16.4549 1.5636 11.4876 1.0136 6.3182C0.971728 5.85573 1.0268 5.38963 1.1753 4.94956C1.3238 4.50949 1.56248 4.10511 1.87614 3.76216C2.1898 3.4192 2.57158 3.14519 2.99715 2.95757C3.42273 2.76995 3.88279 2.67283 4.34803 2.67239H9.37481C10.188 2.6644 10.9763 2.95181 11.5929 3.48105C12.2095 4.01028 12.6122 4.74523 12.726 5.5489C12.9382 7.15451 13.3316 8.73101 13.8989 10.2483C14.1244 10.8469 14.1731 11.4975 14.0395 12.1229C13.9059 12.7483 13.5954 13.3224 13.1449 13.7771L11.0169 15.901C13.4022 20.0879 16.8755 23.5546 21.0705 25.9354L23.1985 23.8114C23.654 23.3618 24.2292 23.0519 24.8558 22.9185C25.4824 22.7851 26.1342 22.8338 26.734 23.0588C28.2542 23.625 29.8337 24.0178 31.4424 24.2295C32.2563 24.3441 32.9997 24.7533 33.5311 25.3793C34.0625 26.0052 34.3448 26.8043 34.3244 27.6245Z" stroke="white" stroke-width="2" stroke-linecap="round" stroke-linejoin="round"/>
</svg>
